<svg width="15" height="15" viewBox="0 0 15 15" fill="none" xmlns="http://www.w3.org/2000/svg">
<path fill-rule="evenodd" clip-rule="evenodd" d="M2.13806 6.50991C2.13806 4.14302 4.0568 2.22428 6.42369 2.22428C8.79058 2.22428 10.7093 4.14302 10.7093 6.50991C10.7093 8.8768 8.79058 10.7955 6.42369 10.7955C4.0568 10.7955 2.13806 8.8768 2.13806 6.50991ZM6.42369 0.974281C3.36645 0.974281 0.888062 3.45267 0.888062 6.50991C0.888062 9.56715 3.36645 12.0455 6.42369 12.0455C7.72713 12.0455 8.92535 11.595 9.87115 10.8413L13.6982 14.6683C13.9423 14.9124 14.338 14.9124 14.5821 14.6683C14.8262 14.4242 14.8262 14.0285 14.5821 13.7844L10.755 9.95737C11.5088 9.01157 11.9593 7.81335 11.9593 6.50991C11.9593 3.45267 9.48093 0.974281 6.42369 0.974281Z" fill="#282828"/>
</svg>
