<svg width="20" height="20" viewBox="0 0 20 20" fill="none" xmlns="http://www.w3.org/2000/svg">
<path d="M9.16772 9.99974C9.16772 10.2207 9.25552 10.4327 9.4118 10.589C9.56808 10.7453 9.78004 10.8331 10.0011 10.8331C10.2221 10.8331 10.434 10.7453 10.5903 10.589C10.7466 10.4327 10.8344 10.2207 10.8344 9.99974C10.8344 9.77872 10.7466 9.56676 10.5903 9.41048C10.434 9.2542 10.2221 9.1664 10.0011 9.1664C9.78004 9.1664 9.56808 9.2542 9.4118 9.41048C9.25552 9.56676 9.16772 9.77872 9.16772 9.99974ZM9.16772 15.8331C9.16772 16.0541 9.25552 16.266 9.4118 16.4223C9.56808 16.5786 9.78004 16.6664 10.0011 16.6664C10.2221 16.6664 10.434 16.5786 10.5903 16.4223C10.7466 16.266 10.8344 16.0541 10.8344 15.8331C10.8344 15.6121 10.7466 15.4001 10.5903 15.2438C10.434 15.0875 10.2221 14.9997 10.0011 14.9997C9.78004 14.9997 9.56808 15.0875 9.4118 15.2438C9.25552 15.4001 9.16772 15.6121 9.16772 15.8331ZM9.16772 4.1664C9.16772 4.38742 9.25552 4.59938 9.4118 4.75566C9.56808 4.91194 9.78004 4.99974 10.0011 4.99974C10.2221 4.99974 10.434 4.91194 10.5903 4.75566C10.7466 4.59938 10.8344 4.38742 10.8344 4.1664C10.8344 3.94539 10.7466 3.73343 10.5903 3.57715C10.434 3.42087 10.2221 3.33307 10.0011 3.33307C9.78004 3.33307 9.56808 3.42087 9.4118 3.57715C9.25552 3.73343 9.16772 3.94539 9.16772 4.1664Z" stroke="#9D9FA2" stroke-width="1.15385" stroke-linecap="round" stroke-linejoin="round"/>
</svg>
